<svg xmlns="http://www.w3.org/2000/svg" viewBox="0 0 365 354">
  <style>
    .st0{fill:#72C7E6;}
    .st1{fill:#FFFFFF;}
    .st2{fill:#002C77;}
  </style>
  <g transform="translate(-67.5 -73)">
    <path class="st0" d="M432.5 250c0 97.8-81.7 177-182.5 177S67.5 347.8 67.5 250 149.2 73 250 73s182.5 79.2 182.5 177z"/>
    <path class="st1" d="M132.5 232s-7.4-36.7 67.1-45.1c3.1-49.1 176.1-50.2 132.9 12.3 32 11.1 26.8 33.3 26.8 33.3s1.3 12.6-9.8 24-23 18.6-60.1 18.6c-14.9 0-36.1.7-60.8-10.6-33.5 6.9-69.9 0-80.9-8.4-13.5-8.9-10.2-19.1-10.2-19.1z"/>
    <path class="st2" d="M132.5 232v56.8s3.8 51.4 97.3 31.1c37.2 27.3 122.9 9.8 129.5-22.4v-65c.5 15.8-73.2 59-129 21.9-83 18.5-97.8-22.4-97.8-22.4z"/>
  </g>
</svg>
